HIERARCHY
ROOT Hips
{
  OFFSET 0 0 0
  CHANNELS 6 Xposition Yposition Zposition Zrotation Yrotation Xrotation
  JOINT LeftThigh
  {
    OFFSET 8.409438 0 -5.917753
    CHANNELS 3 Zrotation Yrotation Xrotation
    JOINT LeftLeg
    {
      OFFSET 0 0 -42.358652
      CHANNELS 3 Zrotation Yrotation Xrotation
      JOINT LeftFoot
      {
        OFFSET 0 0 -39.357303
        CHANNELS 3 Zrotation Yrotation Xrotation
      }
    }
  }
  JOINT RightThigh
  {
    OFFSET -8.409438 0 -5.917753
    CHANNELS 3 Zrotation Yrotation Xrotation
    JOINT RightLeg
    {
      OFFSET 0 0 -42.358652
      CHANNELS 3 Zrotation Yrotation Xrotation
      JOINT RightFoot
      {
        OFFSET 0 0 -39.357303
        CHANNELS 3 Zrotation Yrotation Xrotation
      }
    }
  }
  JOINT SpineLow
  {
    OFFSET 0 0 4.719101
    CHANNELS 3 Zrotation Yrotation Xrotation
    JOINT SpineMid
    {
      OFFSET 0 0 12.899191
      CHANNELS 3 Zrotation Yrotation Xrotation
      JOINT Chest
      {
        OFFSET 0 0 12.899191
        CHANNELS 3 Zrotation Yrotation Xrotation
        JOINT LeftShoulder
        {
          OFFSET 7.550562 1.41573 9.438202
          CHANNELS 3 Zrotation Yrotation Xrotation
          JOINT LeftArm
          {
            OFFSET 9.155056 0 4.247191
            CHANNELS 3 Zrotation Yrotation Xrotation
            JOINT LeftForearm
            {
              OFFSET 0 0 25.771955
              CHANNELS 3 Zrotation Yrotation Xrotation
              JOINT LeftHand
              {
                OFFSET 0 0 25.197169
                CHANNELS 3 Zrotation Yrotation Xrotation
              }
            }
          }
        }
        JOINT RightShoulder
        {
          OFFSET -7.550562 1.41573 9.438202
          CHANNELS 3 Zrotation Yrotation Xrotation
          JOINT RightArm
          {
            OFFSET -9.155056 0 4.247191
            CHANNELS 3 Zrotation Yrotation Xrotation
            JOINT RightForearm
            {
              OFFSET 0 0 -25.771955
              CHANNELS 3 Zrotation Yrotation Xrotation
              JOINT RightHand
              {
                OFFSET 0 0 -25.197169
                CHANNELS 3 Zrotation Yrotation Xrotation
              }
            }
          }
        }
        JOINT Neck
        {
          OFFSET 0 0 15.101124
          CHANNELS 3 Zrotation Yrotation Xrotation
          JOINT Head
          {
            OFFSET 0 0 11.325843
            CHANNELS 3 Zrotation Yrotation Xrotation
            End Site
            {
              OFFSET 0 0 14.157303
            }
          }
        }
      }
    }
  }
}
MOTION
Frames: 8
Frame Time: 0.0
0.0  101.685394  0.0  4.549589  0.308009  -121.564318  15.650014  -23.926328  -62.898093  -7.933028  2.796486  8.341287  -15.392286  -15.638287  1.54498  -12.595832  3.05248  -2.065731  13.195697  4.320811  36.140602  12.208748  4.045304  7.945163  -3.001269  1.633866  5.306267  -7.814453  5.090401  14.301286  -7.814452  5.090402  14.301286  -0.412711  26.926391  10.45772  -148.354335  48.811358  -115.690269  -41.499058  -25.883264  94.999726  81.90229  -7.073212  -16.77536  23.571065  -3.312085  28.14012  109.374343  50.406649  55.921572  -11.2494  18.575393  -98.548795  75.492354  -7.698605  -1.064681  1.759797  6.329343  3.308391  1.284159  4.756731  2.460497  
0.0  101.685394  0.0  4.199801  -0.793804  -121.837736  10.360777  -35.272882  -58.703697  4.56146  1.328098  0.691941  -14.198665  -15.025426  1.182988  -13.5896  2.619501  -1.477233  13.809037  3.957856  35.976168  12.777923  4.204702  8.285224  -2.811774  1.548787  5.462909  -7.303364  4.835571  14.75286  -7.303364  4.835571  14.752859  -0.44909  26.570327  10.027945  -149.053761  48.422597  -116.280878  -41.805604  -25.656726  94.948511  81.67171  -7.062155  -16.330148  22.957036  -3.154118  27.431547  108.552808  49.872185  54.775192  -10.801909  17.80673  -98.545948  74.654563  -7.104087  -0.091425  1.685374  6.536577  3.486599  1.225267  4.912266  2.594033  
0.0  101.685394  0.0  4.069714  -1.327481  -122.354203  5.594201  -43.005351  -60.043434  16.054703  -0.146126  1.5785  -13.20807  -13.828197  0.796382  -14.941502  3.162606  -0.965758  13.850814  3.507382  35.881009  13.897276  4.102119  8.756033  -2.645088  1.550655  5.644474  -6.834794  4.821883  15.2623  -6.834793  4.821883  15.262299  -0.735642  25.71647  9.353603  -150.121478  47.813157  -117.546345  -42.061287  -25.008413  95.131398  81.334902  -6.971591  -15.960136  21.780891  -3.206864  26.598819  108.22701  49.207763  53.829372  -10.444589  17.027848  -98.533595  74.08345  -6.481378  0.723226  1.500385  6.558213  3.634053  1.084953  4.927808  2.706412  
0.0  101.685394  0.0  4.306374  -1.528796  -122.823246  -0.274307  -47.570101  -57.541801  27.712452  -2.239156  2.83462  -14.945474  -13.873253  0.723507  -15.590578  4.353961  -1.010696  13.10241  3.138324  36.256182  15.341782  3.626749  9.105279  -2.45356  1.646594  5.788611  -6.28038  5.051598  15.664456  -6.28038  5.051598  15.664455  -1.249501  24.331225  8.959161  -151.10732  46.814707  -118.822442  -42.173206  -24.078218  95.502464  80.880831  -6.794174  -15.75136  20.027694  -3.543696  25.736428  108.151099  48.484867  52.903696  -10.234102  16.553246  -98.500818  73.854424  -5.948814  1.161815  1.115154  6.278083  3.797532  0.796412  4.715715  2.833807  
0.0  101.685394  0.0  4.72504  -1.624235  -123.527896  -4.925624  -50.369101  -57.239746  35.349246  -6.184164  9.507169  -16.303046  -14.439062  -0.886892  -15.530356  5.719031  -1.04249  12.390957  2.808366  36.970177  16.519258  2.881858  9.285097  -2.281073  1.795122  5.946452  -5.763246  5.42722  16.100928  -5.763246  5.42722  16.100928  -1.605266  22.765194  8.611445  -152.131793  45.707611  -120.181028  -42.203396  -23.108656  95.969641  80.41038  -6.633903  -15.612157  18.42293  -4.086291  24.870565  107.803995  47.7241  51.935166  -10.223199  16.584803  -98.541481  73.77849  -5.559541  1.264382  0.702783  5.780187  3.883776  0.489819  4.339815  2.903694  
0.0  101.685394  0.0  5.303117  -1.237885  -124.742412  -2.344278  -49.066051  -61.769171  36.205885  -8.301772  18.869249  -18.443601  -15.237594  -2.676983  -15.419172  7.544561  -0.620024  12.244496  1.941472  37.711021  16.755785  2.499864  9.40838  -2.239722  1.996675  6.159833  -5.582925  5.980886  16.677107  -5.582925  5.980886  16.677107  -1.878564  21.351898  8.03275  -153.118838  44.695296  -121.730291  -41.650831  -22.319782  97.521239  80.218292  -5.419353  -16.281851  17.535419  -4.559062  24.007446  106.777973  46.922155  50.79114  -10.53962  16.953336  -98.542098  73.830535  -5.103061  1.052223  0.46925  5.243426  3.787028  0.319134  3.935656  2.834251  
0.0  101.685394  0.0  5.64438  -0.852487  -124.725102  4.986581  -44.916164  -68.811862  31.915471  -7.987626  27.73788  -19.499693  -15.472524  -3.976062  -15.194725  8.54174  -1.148524  12.796477  -0.137969  38.523585  15.114855  3.19287  9.493618  -2.347406  2.110274  6.126936  -5.851739  6.313045  16.570123  -5.851739  6.313045  16.570122  -1.710931  20.722062  7.871648  -153.562687  43.980215  -122.637303  -41.90857  -21.999364  97.946658  80.005313  -5.563607  -16.001279  17.618926  -4.603543  23.653018  105.05445  46.308785  49.368096  -10.626935  17.34131  -98.839464  73.911938  -4.731294  1.103375  0.595928  4.909999  3.68404  0.417027  3.68625  2.756541  
0.0  101.685394  0.0  5.163053  -0.53456  -124.599691  11.650567  -39.333088  -73.544077  24.026114  -4.282357  34.750651  -17.459826  -15.536006  -4.315047  -15.633173  7.962342  -1.40477  14.226696  -1.894282  39.08111  12.662965  4.220161  9.636921  -2.549048  2.072069  6.016923  -6.420885  6.24929  16.251134  -6.420885  6.249289  16.251135  -1.183574  20.994317  8.322354  -153.690862  43.80974  -122.71713  -42.260811  -22.446583  98.10652  79.996597  -5.846218  -15.687643  18.218077  -4.29361  24.078885  102.903719  45.976441  47.738808  -10.557432  17.617003  -99.250621  73.765513  -4.263719  1.334693  1.07494  4.688624  3.941458  0.775494  3.523581  2.94619  
